<mxfile host="app.diagrams.net" modified="2024-04-28T15:38:27.069Z" agent="Mozilla/5.0 (X11; Ubuntu; Linux x86_64; rv:125.0) Gecko/20100101 Firefox/125.0" etag="vh0tYH5hffqodq31aDgf" version="24.3.1" type="github">
  <diagram name="Page-1" id="tyBKA0bGHe00-OdEZXyO">
    <mxGraphModel dx="1434" dy="696" grid="1" gridSize="10" guides="1" tooltips="1" connect="1" arrows="1" fold="1" page="1" pageScale="1" pageWidth="850" pageHeight="1100" math="0" shadow="0">
      <root>
        <mxCell id="0" />
        <mxCell id="1" parent="0" />
        <mxCell id="Gb5lMUTHjq_DXmy-1-ze-2" value="rclcpp::Node" style="swimlane;fontStyle=1;align=center;verticalAlign=top;childLayout=stackLayout;horizontal=1;startSize=26;horizontalStack=0;resizeParent=1;resizeParentMax=0;resizeLast=0;collapsible=1;marginBottom=0;whiteSpace=wrap;html=1;" parent="1" vertex="1">
          <mxGeometry x="102.5" y="320" width="165" height="34" as="geometry" />
        </mxCell>
        <mxCell id="Gb5lMUTHjq_DXmy-1-ze-3" value="" style="line;strokeWidth=1;fillColor=none;align=left;verticalAlign=middle;spacingTop=-1;spacingLeft=3;spacingRight=3;rotatable=0;labelPosition=right;points=[];portConstraint=eastwest;strokeColor=inherit;" parent="Gb5lMUTHjq_DXmy-1-ze-2" vertex="1">
          <mxGeometry y="26" width="165" height="8" as="geometry" />
        </mxCell>
        <mxCell id="Gb5lMUTHjq_DXmy-1-ze-5" value="LidarUitlity" style="swimlane;fontStyle=1;align=center;verticalAlign=top;childLayout=stackLayout;horizontal=1;startSize=30;horizontalStack=0;resizeParent=1;resizeParentMax=0;resizeLast=0;collapsible=1;marginBottom=0;whiteSpace=wrap;html=1;" parent="1" vertex="1">
          <mxGeometry x="405" y="380" width="370" height="150" as="geometry" />
        </mxCell>
        <mxCell id="Gb5lMUTHjq_DXmy-1-ze-6" value="&lt;div&gt;- scanAngles: float*&lt;/div&gt;&lt;div&gt;- scanDistance: float*&lt;br&gt;&lt;/div&gt;" style="text;strokeColor=none;fillColor=none;align=left;verticalAlign=top;spacingLeft=4;spacingRight=4;overflow=hidden;rotatable=0;points=[[0,0.5],[1,0.5]];portConstraint=eastwest;whiteSpace=wrap;html=1;" parent="Gb5lMUTHjq_DXmy-1-ze-5" vertex="1">
          <mxGeometry y="30" width="370" height="50" as="geometry" />
        </mxCell>
        <mxCell id="Gb5lMUTHjq_DXmy-1-ze-7" value="" style="line;strokeWidth=1;fillColor=none;align=left;verticalAlign=middle;spacingTop=-1;spacingLeft=3;spacingRight=3;rotatable=0;labelPosition=right;points=[];portConstraint=eastwest;strokeColor=inherit;" parent="Gb5lMUTHjq_DXmy-1-ze-5" vertex="1">
          <mxGeometry y="80" width="370" height="8" as="geometry" />
        </mxCell>
        <mxCell id="Gb5lMUTHjq_DXmy-1-ze-8" value="&lt;div&gt;+ LidarUtility(float*angles, float* distances)&lt;br&gt;&lt;/div&gt;&lt;div&gt;+ getScanDataInRange(float, float, int): vector&amp;lt;pair&amp;lt;float,float&amp;gt;&amp;gt;&lt;br&gt;&lt;/div&gt;&lt;div&gt;+ checkObstacleinFilteredData() : bool&lt;br&gt;&lt;/div&gt;" style="text;strokeColor=none;fillColor=none;align=left;verticalAlign=top;spacingLeft=4;spacingRight=4;overflow=hidden;rotatable=0;points=[[0,0.5],[1,0.5]];portConstraint=eastwest;whiteSpace=wrap;html=1;" parent="Gb5lMUTHjq_DXmy-1-ze-5" vertex="1">
          <mxGeometry y="88" width="370" height="62" as="geometry" />
        </mxCell>
        <mxCell id="qjejY537604e-5QMQ8SS-2" style="edgeStyle=orthogonalEdgeStyle;rounded=0;orthogonalLoop=1;jettySize=auto;html=1;entryX=0.5;entryY=1;entryDx=0;entryDy=0;endArrow=block;endFill=0;" edge="1" parent="1" source="Gb5lMUTHjq_DXmy-1-ze-15" target="Gb5lMUTHjq_DXmy-1-ze-2">
          <mxGeometry relative="1" as="geometry" />
        </mxCell>
        <mxCell id="Gb5lMUTHjq_DXmy-1-ze-15" value="ObstacleDetector" style="swimlane;fontStyle=1;align=center;verticalAlign=top;childLayout=stackLayout;horizontal=1;startSize=30;horizontalStack=0;resizeParent=1;resizeParentMax=0;resizeLast=0;collapsible=1;marginBottom=0;whiteSpace=wrap;html=1;" parent="1" vertex="1">
          <mxGeometry y="500" width="370" height="210" as="geometry" />
        </mxCell>
        <mxCell id="Gb5lMUTHjq_DXmy-1-ze-16" value="- scanData_sub_:Subscription&amp;lt;sensor_msgs::Scan&amp;gt;::SharedPtr&lt;br&gt;&lt;div&gt;-publisher_ : Publisher&amp;lt;string&amp;gt;::SharedPtr&lt;/div&gt;&lt;div&gt;-scan_angle_[3240]:float&lt;/div&gt;&lt;div&gt;-scan_range_[3240]:float&lt;br&gt;&lt;/div&gt;" style="text;strokeColor=none;fillColor=none;align=left;verticalAlign=top;spacingLeft=4;spacingRight=4;overflow=hidden;rotatable=0;points=[[0,0.5],[1,0.5]];portConstraint=eastwest;whiteSpace=wrap;html=1;" parent="Gb5lMUTHjq_DXmy-1-ze-15" vertex="1">
          <mxGeometry y="30" width="370" height="90" as="geometry" />
        </mxCell>
        <mxCell id="Gb5lMUTHjq_DXmy-1-ze-17" value="" style="line;strokeWidth=1;fillColor=none;align=left;verticalAlign=middle;spacingTop=-1;spacingLeft=3;spacingRight=3;rotatable=0;labelPosition=right;points=[];portConstraint=eastwest;strokeColor=inherit;" parent="Gb5lMUTHjq_DXmy-1-ze-15" vertex="1">
          <mxGeometry y="120" width="370" height="8" as="geometry" />
        </mxCell>
        <mxCell id="Gb5lMUTHjq_DXmy-1-ze-18" value="&lt;div&gt;+ ObstacleDetector():Node(&quot;ObstacleDetector&quot;)&lt;br&gt;&lt;/div&gt;&lt;div&gt;- topic_callback():void&lt;br&gt;&lt;/div&gt;" style="text;strokeColor=none;fillColor=none;align=left;verticalAlign=top;spacingLeft=4;spacingRight=4;overflow=hidden;rotatable=0;points=[[0,0.5],[1,0.5]];portConstraint=eastwest;whiteSpace=wrap;html=1;" parent="Gb5lMUTHjq_DXmy-1-ze-15" vertex="1">
          <mxGeometry y="128" width="370" height="82" as="geometry" />
        </mxCell>
        <mxCell id="Gb5lMUTHjq_DXmy-1-ze-21" style="edgeStyle=orthogonalEdgeStyle;rounded=0;orthogonalLoop=1;jettySize=auto;html=1;endArrow=open;endFill=0;entryX=0.331;entryY=1.054;entryDx=0;entryDy=0;entryPerimeter=0;" parent="1" source="Gb5lMUTHjq_DXmy-1-ze-15" target="Gb5lMUTHjq_DXmy-1-ze-8" edge="1">
          <mxGeometry relative="1" as="geometry">
            <mxPoint x="527" y="560" as="targetPoint" />
            <Array as="points">
              <mxPoint x="527" y="665" />
            </Array>
          </mxGeometry>
        </mxCell>
      </root>
    </mxGraphModel>
  </diagram>
</mxfile>
